<svg xmlns="http://www.w3.org/2000/svg" viewBox="0 0 20 20" class="Search-filterCollapseIcon-seR"><g transform="translate(0 0.002)"><path d="M15.625,10.623h-15a.625.625,0,0,1,0-1.25h15a.625.625,0,0,1,0,1.25Z"></path><path d="M12.5,13.748a.625.625,0,0,1-.442-1.067L14.741,10,12.058,7.315a.625.625,0,0,1,.884-.884l3.125,3.125a.625.625,0,0,1,0,.884l-3.125,3.125A.623.623,0,0,1,12.5,13.748Z"></path><path d="M19.375,20a.625.625,0,0,1-.625-.625V.623a.625.625,0,0,1,1.25,0v18.75A.625.625,0,0,1,19.375,20Z"></path></g></svg>
